<?xml version="1.0" encoding="UTF-8" standalone="no"?>
<!DOCTYPE svg PUBLIC "-//W3C//DTD SVG 1.1//EN" "http://www.w3.org/Graphics/SVG/1.1/DTD/svg11.dtd">
<svg width="100%" height="100%" viewBox="0 0 64 64" version="1.1" xmlns="http://www.w3.org/2000/svg" xmlns:xlink="http://www.w3.org/1999/xlink" xml:space="preserve" xmlns:serif="http://www.serif.com/" style="fill-rule:evenodd;clip-rule:evenodd;stroke-linecap:round;stroke-linejoin:round;stroke-miterlimit:1.5;">
    <g transform="matrix(3.6243,0,0,3.76925,4.956,1.97302)">
        <circle cx="7.412" cy="8.109" r="7.586" style="fill:rgb(253,222,218);fill-opacity:0.66;stroke:black;stroke-width:0.68px;"/>
    </g>
    <g transform="matrix(2.53711,0,0,2.53711,32.5687,33.4477)">
        <g transform="matrix(1,0,0,1,-8,-8)">
            <path d="M6.717,3.55C6.89,3.633 7,3.808 7,4L7,12C7,12.274 6.774,12.499 6.5,12.499C6.387,12.499 6.277,12.461 6.188,12.39L3.825,10.5L1.5,10.5C1.226,10.5 1,10.274 1,10L1,6C1,5.726 1.226,5.5 1.5,5.5L3.825,5.5L6.188,3.61C6.338,3.49 6.544,3.467 6.717,3.55M13.854,5.646C13.948,5.74 14.001,5.867 14.001,6C14.001,6.133 13.948,6.26 13.854,6.354L12.207,8L13.854,9.646C13.948,9.74 14.001,9.867 14.001,10C14.001,10.275 13.775,10.501 13.5,10.501C13.367,10.501 13.24,10.448 13.146,10.354L11.5,8.707L9.854,10.354C9.76,10.448 9.633,10.501 9.5,10.501C9.225,10.501 8.999,10.275 8.999,10C8.999,9.867 9.052,9.74 9.146,9.646L10.793,8L9.146,6.354C9.052,6.26 8.999,6.133 8.999,6C8.999,5.725 9.225,5.499 9.5,5.499C9.633,5.499 9.76,5.552 9.854,5.646L11.5,7.293L13.146,5.646C13.24,5.552 13.367,5.499 13.5,5.499C13.633,5.499 13.76,5.552 13.854,5.646" style="fill-rule:nonzero;"/>
        </g>
    </g>
</svg>
