<?xml version="1.0" encoding="UTF-8" standalone="no"?>
<!DOCTYPE svg PUBLIC "-//W3C//DTD SVG 1.1//EN" "http://www.w3.org/Graphics/SVG/1.1/DTD/svg11.dtd">
<svg width="100%" height="100%" viewBox="0 0 64 64" version="1.1" xmlns="http://www.w3.org/2000/svg" xmlns:xlink="http://www.w3.org/1999/xlink" xml:space="preserve" xmlns:serif="http://www.serif.com/" style="fill-rule:evenodd;clip-rule:evenodd;stroke-linecap:round;stroke-linejoin:round;stroke-miterlimit:1.5;">
    <g transform="matrix(3.6243,0,0,3.76925,4.956,1.97302)">
        <circle cx="7.412" cy="8.109" r="7.586" style="fill:rgb(253,222,218);fill-opacity:0.66;stroke:black;stroke-width:0.68px;"/>
    </g>
    <g transform="matrix(3.09652,0,0,3.22037,33.3249,32.4827)">
        <g transform="matrix(1,0,0,1,-8,-8)">
            <path d="M4.646,1.646C4.74,1.552 4.867,1.499 5,1.499C5.133,1.499 5.26,1.552 5.354,1.646L11.354,7.646C11.448,7.74 11.501,7.867 11.501,8C11.501,8.133 11.448,8.26 11.354,8.354L5.354,14.354C5.26,14.448 5.133,14.501 5,14.501C4.725,14.501 4.499,14.275 4.499,14C4.499,13.867 4.552,13.74 4.646,13.646L10.293,8L4.646,2.354C4.552,2.26 4.499,2.133 4.499,2C4.499,1.867 4.552,1.74 4.646,1.646"/>
        </g>
    </g>
</svg>
