<?xml version="1.0" encoding="UTF-8" standalone="no"?>
<!DOCTYPE svg PUBLIC "-//W3C//DTD SVG 1.1//EN" "http://www.w3.org/Graphics/SVG/1.1/DTD/svg11.dtd">
<svg width="100%" height="100%" viewBox="0 0 64 64" version="1.1" xmlns="http://www.w3.org/2000/svg" xmlns:xlink="http://www.w3.org/1999/xlink" xml:space="preserve" xmlns:serif="http://www.serif.com/" style="fill-rule:evenodd;clip-rule:evenodd;stroke-linecap:round;stroke-linejoin:round;stroke-miterlimit:1.5;">
    <g transform="matrix(3.6243,0,0,3.76925,4.956,1.97302)">
        <circle cx="7.412" cy="8.109" r="7.586" style="fill:rgb(253,222,218);fill-opacity:0.66;stroke:black;stroke-width:0.68px;"/>
    </g>
    <g transform="matrix(2.53779,0,0,2.53779,32.575,33.3671)">
        <g transform="matrix(1,0,0,1,-8,-8)">
            <path d="M11.536,14.01C13.132,12.419 14.029,10.254 14.026,8C14.029,5.746 13.132,3.581 11.536,1.99L10.828,2.697C12.236,4.102 13.027,6.011 13.025,8C13.025,10.071 12.185,11.946 10.828,13.303L11.536,14.01Z" style="fill-rule:nonzero;"/>
            <path d="M10.121,12.596C11.341,11.379 12.027,9.724 12.025,8C12.027,6.276 11.341,4.621 10.121,3.404L9.414,4.111C10.447,5.141 11.027,6.541 11.025,8C11.028,9.459 10.448,10.86 9.415,11.89L10.121,12.596Z" style="fill-rule:nonzero;"/>
            <path d="M8.707,11.182C9.551,10.338 10.025,9.193 10.025,8C10.025,6.807 9.551,5.662 8.707,4.818L8,5.525C8.656,6.181 9.025,7.072 9.025,8C9.025,8.928 8.656,9.819 8,10.475L8.707,11.182ZM6.717,3.55C6.89,3.633 7,3.808 7,4L7,12C7,12.274 6.774,12.499 6.5,12.499C6.387,12.499 6.277,12.461 6.188,12.39L3.825,10.5L1.5,10.5C1.226,10.5 1,10.274 1,10L1,6C1,5.726 1.226,5.5 1.5,5.5L3.825,5.5L6.188,3.61C6.338,3.49 6.544,3.467 6.717,3.55" style="fill-rule:nonzero;"/>
        </g>
    </g>
</svg>
